<?xml version="1.0" encoding="UTF-8"?>
<svg width="376px" height="281px" viewBox="0 0 376 281" version="1.1" xmlns="http://www.w3.org/2000/svg" xmlns:xlink="http://www.w3.org/1999/xlink">
    <!-- Generator: Sketch 51.3 (57544) - http://www.bohemiancoding.com/sketch -->
    <title>Group</title>
    <desc>Created with Sketch.</desc>
    <defs></defs>
    <g id="Page-1" stroke="none" stroke-width="1" fill="none" fill-rule="evenodd">
        <g id="Group" transform="translate(1.000000, 1.000000)">
            <text id="SOUTH-SUDAN" font-family="PTSans-Regular, PT Sans" font-size="16" font-weight="normal" fill="#FFFFFF">
                <tspan x="117" y="191">SOUTH SUDAN</tspan>
            </text>
            <g id="smallmap">
                <path d="M237.79,272.4 C237.251301,272.61114 236.748648,272.904636 236.3,273.27 C235.96,273.49 235.3,273.57 235.22,274.03 C234.95,273.84 234.71,274.03 234.73,273.56 C234.73,273.34 235.04,273.08 234.91,272.85 C234.78,272.62 234.39,272.63 234.2,272.56 C233.857827,272.411632 233.523998,272.244718 233.2,272.06 C231.618888,271.299883 230.09784,270.420684 228.65,269.43 C227.982679,268.994592 227.174423,268.83008 226.39,268.97 C225.94,268.97 225.49,268.97 225.04,268.97 C224.71117,268.892515 224.36883,268.892515 224.04,268.97 C223.76,269.11 223.57,269.44 223.3,269.62 L222.53,270.1 C222.44,270.16 221.67,270.59 222.04,270.62 C221.9,270.8 221.86,270.77 221.67,270.73 C221.695015,270.7624 221.695015,270.8076 221.67,270.84 C221.49,270.77 221.44,270.53 221.13,270.55 C220.82,270.57 220.78,270.75 220.61,270.88 C221.07,271.08 220.21,271.67 220.06,271.79 C219.91,271.91 219.63,272.15 219.35,272.06 C219.07,271.97 218.98,271.71 218.65,271.71 C217.93,271.71 217.87,272.47 217.52,272.89 C217.17,273.31 217.08,273.28 217.08,273.69 C217.08,274.1 217.08,274.01 216.86,274.26 C216.64,274.51 216.59,274.48 216.51,274.57 C216.43,274.66 216.38,274.92 216.26,275.06 C216.14,275.2 216.01,275.19 215.89,275.32 C215.752924,275.505871 215.645015,275.711572 215.57,275.93 C215.28744,276.466062 215.033745,277.016848 214.81,277.58 C214.71,277.86 214.06,278.95 214.61,278.97 C213.99,279.35 213.88,278.29 213.92,277.91 C213.96,277.53 214.66,276.64 214.09,276.23 C213.71046,276.066353 213.315027,275.942361 212.91,275.86 C212.480765,275.700433 212.151264,275.348719 212.02,274.91 C211.88,274.42 212.2,272.97 211.41,272.86 C210.86,272.78 210.77,273.73 210.59,274.07 C210.03,275.07 209.1,274.07 208.32,274.07 C207.892787,274.157561 207.49819,274.361783 207.18,274.66 C206.733984,275.001415 206.223876,275.249667 205.68,275.39 C205.41,275.45 204.79,275.56 204.68,275.23 C204.57,274.9 204.87,274.6 204.98,274.4 C205.457143,273.41506 205.584132,272.296851 205.34,271.23 C205.25,270.62 205.14,270.02 205,269.42 C204.933149,268.92924 204.795027,268.450864 204.59,268 C204.381164,267.676284 204.047349,267.453753 203.668209,267.385508 C203.289068,267.317263 202.898609,267.409424 202.59,267.64 C201.84,268.02 201.36,268.08 200.98,267.27 C200.912627,267.036952 200.788999,266.824039 200.62,266.65 C200.31,266.43 200.05,266.65 199.74,266.65 C199.43,266.65 198.99,265.86 198.66,265.65 C198.33,265.44 197.74,265.1 197.29,264.82 C196.84,264.54 196.6,264.82 196.29,264.56 C195.98,264.3 195.9,263.84 195.39,263.86 C194.59,263.86 194.12,264.96 193.39,263.96 C193.159036,263.54551 193.025653,263.083801 193,262.61 C193.002167,262.400597 192.961324,262.192978 192.88,262 C192.78,261.83 192.53,261.79 192.44,261.62 C192.35,261.45 192.44,261.24 192.2,261.03 C191.96,260.82 191.91,260.87 191.83,260.59 C191.75,260.31 191.98,259.74 191.73,259.37 C191.48,259 190.92,258.95 190.55,258.8 C190.18,258.65 189.71,258.39 189.27,258.24 C188.903668,258.149674 188.56206,257.97887 188.27,257.74 C187.88,257.36 188.02,256.88 187.81,256.43 C187.6,255.98 187.17,255.86 186.81,255.61 C186.470172,255.313851 186.040265,255.141184 185.59,255.12 C184.51,255.03 185.44,254.12 185.59,253.63 C185.78,252.8 184.59,252.1 183.99,251.72 C183.39,251.34 183.34,251.58 182.79,251.72 C182.394344,251.80337 181.985656,251.80337 181.59,251.72 C181.256545,251.500026 180.942111,251.252493 180.65,250.98 C180.23,250.67 180.36,250.37 180.34,249.9 C180.32,249.43 180.34,249 180.34,248.55 C180.34,248.1 180.72,247.55 180.63,247.05 C180.54,246.55 180.11,246.43 180.43,246.05 C180.75,245.67 181.02,245.64 181.16,245.25 C181.3,244.86 181.16,244.7 180.76,244.63 C180.36,244.56 180.11,244.69 179.76,244.32 C179.41,243.95 179.34,244.09 178.84,244.32 C178.34,244.55 178.18,244.09 177.97,243.73 C177.76,243.37 177.65,242.96 177.27,242.81 C177.07,242.73 176.86,242.75 176.66,242.66 C176.4439,242.554669 176.233598,242.437835 176.03,242.31 C175.717289,242.11784 175.381211,241.966605 175.03,241.86 C174.87,241.81 174.75,241.66 174.62,241.61 C174.33,241.5 174.42,241.61 174.17,241.75 C173.75,242.05 173.76,241.75 173.39,241.57 C173.02,241.39 173.12,241.57 172.89,241.57 C172.66,241.57 172.67,241.39 172.47,241.37 C172.05,241.37 171.99,242.05 171.59,241.56 C171.35,241.27 171.22,240.61 170.68,240.8 C170.381402,240.996034 170.137176,241.264338 169.97,241.58 C169.832022,241.99209 169.832022,242.43791 169.97,242.85 C170.12,243.54 169.58,243.96 169.26,244.55 C168.949622,245.436856 168.533274,246.282982 168.02,247.07 C167.64,247.49 167.22,247.42 166.79,247.69 C166.515522,247.918589 166.290886,248.201085 166.13,248.52 C165.81,249.08 165.78,249.87 165.25,250.3 C164.994031,250.522457 164.635596,250.584124 164.32,250.46 C164.07,250.36 163.75,250.1 163.45,250.17 C163.15,250.24 163.18,250.55 163.04,250.79 C162.720746,251.133684 162.268901,251.323167 161.8,251.31 C160.83878,251.144095 160.018229,250.521222 159.6,249.64 C159.4,249.22 159.37,248.95 158.85,248.92 C158.51,248.92 157.85,249.17 157.76,248.79 C157.67,248.41 158.07,248.24 157.51,248.05 C156.95,247.86 156.78,247.93 156.4,247.49 C156.02,247.05 155.96,246.95 155.52,246.99 C155.08,247.03 154.47,247.41 153.87,247.4 C153.27,247.39 152.94,247.47 152.49,247.46 C152.303609,247.445659 152.116391,247.445659 151.93,247.46 C151.7,247.46 151.62,247.57 151.37,247.46 C151.12,247.35 150.9,247.03 150.49,247.21 C150.08,247.39 149.91,247.64 149.42,247.49 C149.08,247.39 148.62,247.09 148.62,246.7 C148.62,246.48 148.77,246.32 148.75,246.08 C148.704835,245.825019 148.598456,245.58481 148.44,245.38 C148.16,244.94 147.93,244.69 147.44,245.05 C147.281603,245.206869 147.094998,245.332403 146.89,245.42 C146.64,245.5 146.38,245.42 146.13,245.48 C145.13,245.74 145.55,247.14 145.2,247.82 C144.807519,248.709022 143.974962,249.324887 143.01,249.44 C142.67,249.44 142.2,249.28 141.94,249.58 C141.68,249.88 141.85,250.28 141.49,250.52 C140.84,250.94 139.97,250.4 139.36,251.03 C138.75,251.66 138.9,252.64 138.08,253.03 C137.26,253.42 136.58,253.89 135.62,253.37 C135.202235,253.133408 134.856592,252.787765 134.62,252.37 C134.418405,251.972327 133.977897,251.756152 133.54,251.84 C133.313043,251.893865 133.089346,251.96064 132.87,252.04 C132.7,252.04 132.48,252.04 132.31,252.04 C131.86537,252.127625 131.41318,252.171169 130.96,252.17 C130.523623,252.133861 130.098753,252.011498 129.71,251.81 C129.313984,251.528589 128.960382,251.191826 128.66,250.81 C128.27,250.44 126.92,250.33 127.21,249.64 C127.31,249.39 127.73,249.03 127.31,248.79 C127.11,248.68 127.07,248.79 126.88,248.79 C126.69,248.79 126.81,248.79 126.75,248.79 C126.69,248.79 126.64,248.64 126.58,248.62 C126.29,248.52 126.02,248.72 125.69,248.67 C125.24156,248.519612 124.836537,248.262182 124.51,247.92 C123.77,247.32 124.06,246.56 123.84,245.74 C123.56,244.74 122.51,245.37 121.84,245.11 C121.49,244.98 121.19,244.75 120.84,244.99 C120.71,245.07 120.84,245.17 120.66,245.22 C120.48,245.27 120.02,245.12 119.81,245.12 C119.355042,245.220488 118.87909,245.153003 118.47,244.93 C118.3,244.79 118.25,244.55 118.08,244.41 C117.91,244.27 117.93,244.35 117.87,244.3 C117.81,244.25 117.73,244.12 117.65,244.05 C117.50181,243.957104 117.344281,243.880015 117.18,243.82 C117.12,243.82 116.92,243.47 116.89,243.46 C116.61,243.38 116.22,243.87 116.03,243.46 C115.95,243.27 116.12,243.05 116.13,242.84 C116.119073,242.596727 116.057781,242.358368 115.95,242.14 C115.760504,241.780034 115.80795,241.341151 116.07,241.03 C116.281496,240.617277 116.35843,240.148681 116.29,239.69 C116.349136,239.154936 116.255524,238.614065 116.02,238.13 C115.84,237.85 115.49,237.41 115.15,237.36 C114.81,237.31 114.28,237.69 113.87,237.48 C113.46,237.27 113.53,236.95 113.48,236.64 C113.429769,236.190415 113.318756,235.749727 113.15,235.33 C112.819418,234.489884 111.980321,233.962916 111.08,234.03 C110.675148,234.044457 110.272937,234.101437 109.88,234.2 C109.35,234.32 109.29,234.13 108.98,233.73 C108.67,233.33 108.2,233.34 107.98,232.9 C107.76,232.46 107.98,231.9 107.65,231.58 C107.52,231.43 107.32,231.4 107.16,231.31 C106.989225,231.19406 106.837428,231.052383 106.71,230.89 C106.36,230.53 105.83,230.35 105.71,229.83 C105.59,229.31 105.79,228.83 105.61,228.44 C105.43,228.05 105.03,227.91 104.74,227.66 C104.358759,227.363039 104.093431,226.942051 103.99,226.47 C103.938619,226.034764 103.666466,225.656774 103.27,225.47 C102.947786,225.286007 102.676324,225.024853 102.48,224.71 C102.19,224.31 101.61,224.4 101.23,224.07 C100.889094,223.764706 100.663195,223.351735 100.59,222.9 C100.578015,222.634713 100.491356,222.378203 100.34,222.16 C100.21,222 100.01,221.92 99.88,221.75 C99.63,221.43 99.53,220.97 99.31,220.62 C99.09,220.27 98.75,219.85 99.01,219.43 C99.27,219.01 99.37,219.19 99.01,218.75 C98.6469929,218.342372 98.4663605,217.804087 98.51,217.26 C98.5837892,216.745849 98.7285,216.244409 98.94,215.77 C99.0801662,215.276685 99.2504866,214.792441 99.45,214.32 C99.65,213.95 99.92,213.72 99.88,213.32 C99.84,212.92 99.73,212.72 99.88,212.32 C100.03,211.92 100.18,211.91 99.74,211.66 C99.5820963,211.526641 99.3688232,211.479216 99.1692847,211.533092 C98.9697463,211.586967 98.809325,211.735289 98.74,211.93 C98.54,211.82 98.44,211.12 98.46,210.93 C98.46,210.42 98.77,210.26 98.34,209.81 C98.21,209.67 98,209.6 97.92,209.42 C97.84,209.24 97.92,209.07 97.92,208.85 C97.806844,208.347146 97.5287613,207.896582 97.13,207.57 C96.76,207.22 96.23,207.2 95.86,206.9 C95.49,206.6 96.09,206.67 96.2,206.39 C96.31,206.11 95.46,206 95.29,205.97 C94.84,205.87 94.82,205.81 94.83,205.34 L94.46,205.54 C94.36,204.81 93.67,205.09 93.32,205.54 C93.2039869,205.424399 93.0640326,205.335647 92.91,205.28 C92.84,205.28 92.68,205.4 92.64,205.38 C92.36,205.2 92.64,204.96 92.45,204.78 C92.26,204.6 92.03,204.85 91.85,204.61 C91.67,204.37 91.85,204.03 91.71,203.76 C91.4981942,203.482383 91.1857053,203.2992 90.84,203.25 C90.44,203.25 90.21,203.57 89.84,203.57 C89.47,203.57 89.22,203.25 89.02,203.11 C88.67,202.86 88.81,202.6 88.56,202.31 C88.06,201.7 87.4,202.46 86.85,202.46 C85.97,202.46 85.64,201.82 85.65,201.06 C85.65,200.64 85.58,199.25 84.99,199.15 C84.85,199.15 84.78,199.27 84.68,199.26 C84.58,199.25 84.53,199.05 84.39,198.96 C84.25,198.87 83.75,198.76 83.45,198.6 C83.15,198.44 83.03,198.31 82.7,198.35 C82.37,198.39 82.25,198.53 81.96,198.43 C81.67,198.33 81.29,197.97 80.8,198.18 C80.31,198.39 80.33,198.67 79.88,198.52 C79.62,198.43 79.41,198.28 79.15,198.2 C78.89,198.12 78.93,198.2 78.74,198.09 C78.55,197.98 78.61,197.83 78.34,197.78 C78.07,197.73 77.67,197.95 77.29,197.78 C76.91,197.61 76.88,197.29 76.64,196.94 C76.4,196.59 76.3,196.65 76.21,196.32 C76.1845606,196.079638 76.1377079,195.842028 76.07,195.61 C75.74,194.88 75.21,195 74.63,195.42 C74.34,195.63 73.83,196.56 73.49,196 C73.15,195.44 73.67,194.79 74.06,194.5 C74.6613462,194.157608 75.204731,193.722225 75.67,193.21 C75.93,192.86 76.4,192.05 76.01,191.62 C75.62,191.19 75.01,192.09 74.45,191.71 C73.89,191.33 74.38,190.56 74.23,190.01 C74.13,189.63 73.88,189.66 73.57,189.54 C73.26,189.42 72.98,189.12 72.57,189.04 C71.8697355,188.966113 71.2319436,188.603731 70.81,188.04 C70.219213,187.458737 69.5651289,186.945533 68.86,186.51 C68.65,186.36 68.42,186.24 68.46,185.94 C68.5,185.64 69.11,185.49 69.12,185.13 C69.13,184.77 68.8,184.9 68.75,184.68 C68.7,184.46 68.95,184.37 68.94,184.15 C68.94,183.47 68.07,184.54 68.31,183.55 C68.340126,183.325647 68.4502009,183.1197 68.62,182.97 C68.8,182.87 69.07,182.97 69.25,182.97 C69.43,182.97 69.41,182.81 69.4,182.53 C69.39,182.25 69.4,182.26 69.57,182 C69.57,181.91 69.57,181.78 69.65,181.69 C69.73,181.6 69.9,181.46 70.03,181.32 C70.16,181.18 70.14,180.78 70.3,180.48 C70.46,180.18 70.61,180.34 70.92,180.33 C71.23,180.32 71.17,179.94 71.35,179.64 C71.53,179.34 72.57,178.87 72.35,178.18 C72.23,177.87 71.86,177.93 71.62,177.8 C71.3539681,177.608429 71.1237807,177.371472 70.94,177.1 C70.7170248,176.839195 70.3930701,176.686318 70.05,176.68 C69.67,176.68 69.45,176.4 69.05,176.31 C68.6935625,176.291919 68.3364375,176.291919 67.98,176.31 C67.33,176.23 67.55,175.92 67.36,175.47 C67.09,174.81 66.07,175.4 65.73,174.94 C65.64,174.81 65.73,174.48 65.58,174.3 C65.43,174.12 64.86,173.97 64.72,173.68 C64.58,173.39 64.89,173.19 64.63,172.94 C64.37,172.69 64.14,172.8 63.92,172.8 C63.06,172.8 62.5,172.8 62.03,171.95 C61.7997735,171.591162 61.7308347,171.152131 61.84,170.74 C61.84,170.59 62.1,169.93 61.84,169.83 C61.58,169.73 61.52,170.15 61.23,170.01 C60.94,169.87 61.03,169.5 61.07,169.27 C60.96,169.27 60.57,169.38 60.47,169.27 C60.37,169.16 60.54,168.97 60.64,168.79 C60.7438969,168.639525 60.7438969,168.440475 60.64,168.29 C60.5007404,168.066591 60.5007404,167.783409 60.64,167.56 C60.84,167.07 60.78,166.81 60.22,166.65 C59.8130188,166.579638 59.3969812,166.579638 58.99,166.65 C58.85,166.65 58.64,166.7 58.52,166.65 C58.4,166.6 58.47,166.31 58.46,166.1 C58.46,165.56 57.88,165.7 57.46,165.67 C57.2475077,165.68349 57.0348823,165.645766 56.84,165.56 C56.65,165.44 56.7,165.26 56.58,165.13 C56.46,165 55.78,165.13 55.69,164.82 C55.55,164.4 56.34,164.53 55.83,164.09 C55.6381899,163.951536 55.4205695,163.852926 55.19,163.8 C54.92,163.7 54.76,163.51 54.45,163.46 C54.14,163.41 53.26,163.54 53.15,163.3 C53.04,163.06 53.49,162.83 53.48,162.56 C53.48,161.91 52.37,161.99 51.92,161.96 C51.7,161.96 51.32,161.96 51.16,161.78 C51,161.6 51.16,161.49 51.04,161.37 C50.92,161.25 50.61,161.25 50.4,161.31 C50.19,161.37 50.16,161.5 49.93,161.31 C49.7,161.12 49.73,160.79 49.38,160.69 C49.03,160.59 48.84,160.79 48.55,160.75 C48.26,160.71 48.13,160.53 47.9,160.33 C47.67,160.13 46.97,160.07 46.51,159.99 C46.05,159.91 46.32,159.75 46.15,159.43 C45.98,159.11 45.74,159.35 45.61,159.61 C45.18,159.4 45.43,159.34 45.36,159.02 C45.29,158.7 44.87,158.51 44.67,158.86 C44.43,158.7 44.44,158.38 44.22,158.2 C44,158.02 43.68,158.1 43.42,158 C43.42,158.13 43.42,158.35 43.23,158.38 C42.89,158.44 43.14,158.23 42.96,158.19 C42.78,158.15 42.63,158.34 42.49,158.32 C42.35,158.3 42.21,158.06 42.1,157.96 C41.99,157.86 41.9,157.7 41.58,157.86 C41.5,157.68 41.71,157.37 41.58,157.22 C41.45,157.07 41.26,157.22 41.06,157.16 C40.86,157.1 40.52,156.46 40.14,156.35 C39.76,156.24 39.93,156.42 39.71,156.49 C39.49,156.56 39.47,156.49 39.29,156.26 C39.11,156.03 38.91,156.1 38.64,155.93 C38.4445626,155.737121 38.312087,155.489601 38.26,155.22 C38.2150732,154.972018 38.1850195,154.721571 38.17,154.47 C38.12,154.24 37.89,154.09 37.83,153.86 C37.77,153.63 37.9,153.43 37.6,153.31 C37.3,153.19 37.14,153.47 36.93,153.31 C36.72,153.15 36.93,153.12 36.83,153.01 C36.7295711,152.915926 36.6226398,152.829045 36.51,152.75 C36.44,152.69 36.37,152.58 36.32,152.52 C36.27,152.46 36.21,152.52 36.19,152.52 C36.17,152.52 36.24,152.41 36.19,152.24 C36.14,152.07 36.07,152.18 36.05,152.13 C36.03,152.08 35.9,151.9 35.86,151.78 C35.71,152.11 35.16,151.94 34.86,151.9 C34.56,151.86 34.54,151.72 34.29,151.55 C34.04,151.38 33.9,151.55 33.64,151.45 C33.14,151.28 33.46,150.61 33.42,150.23 C33.385361,149.727189 33.1684669,149.254289 32.81,148.9 C32.71,148.8 32.54,148.78 32.58,148.6 C32.62,148.42 32.82,148.49 32.94,148.36 C33.06,148.23 33.13,148.09 33.39,147.98 C33.5836492,147.892384 33.7598265,147.770415 33.91,147.62 C33.9872822,147.550136 34.0750071,147.492777 34.17,147.45 C34.24,147.45 34.38,147.45 34.46,147.45 C34.54,147.45 34.53,147.27 34.61,147.2 C34.86,147.02 35.05,147.11 35.34,147.05 C35.568542,146.981566 35.7846221,146.876902 35.98,146.74 C36.11,146.66 36.34,146.53 36.36,146.36 C36.38,146.19 36.17,146.13 36.19,146 C36.25,145.68 37.08,146 36.69,145.41 C36.5,145.14 36.16,145.14 36.08,144.77 C36,144.4 36.18,144.44 36.17,144.23 C36.17,144.18 36.07,144.06 36.08,144.02 C36.08,143.79 36.14,143.84 36.26,143.6 C36.53,143.05 36.13,142.6 36.21,142.1 C36.21,141.9 36.47,141.65 36.29,141.45 C36.11,141.25 36.09,141.45 35.92,141.53 C35.49,141.61 35.6,141.22 35.46,140.94 C35.2109529,140.576076 34.9225441,140.240717 34.6,139.94 C34.45,139.76 34.52,139.5 34.41,139.37 C34.3,139.24 34.18,139.37 33.98,139.37 C33.58,139.29 33.37,138.61 32.98,138.37 C32.59,138.13 32.19,138.37 31.82,138.37 L30.99,138.51 C30.71,138.51 30.48,138.74 30.22,138.79 C29.72,138.88 29.67,138.27 29.43,137.95 C29.035907,137.497845 28.5568388,137.127502 28.02,136.86 C27.529241,136.610562 27.0549394,136.32999 26.6,136.02 C26.04,135.6 25.98,135.09 25.6,134.55 C25.22,134.01 24.72,133.99 24.27,133.66 C23.9466304,133.371573 23.770332,132.952864 23.79,132.52 C23.7740833,132.02772 23.7070567,131.538426 23.59,131.06 C23.3741462,130.582747 23.1303915,130.118611 22.86,129.67 C22.76,129.45 22.68,129.28 22.41,129.26 C22.14,129.24 22.19,129.42 21.98,129.34 C21.77,129.26 21.78,129.07 21.59,129 C21.3433986,128.941703 21.0866014,128.941703 20.84,129 C20.4258633,129.171051 19.9756676,129.236346 19.53,129.19 C19.05,129.07 19.1,128.52 18.63,128.38 C18.16,128.24 17.63,128.55 17.14,128.28 C16.6098431,127.937244 15.977281,127.788822 15.35,127.86 C14.7615379,127.980004 14.1880813,128.164449 13.64,128.41 C13.0243605,128.608801 12.3498709,128.480686 11.85,128.07 C11.6830677,127.95316 11.5318308,127.815366 11.4,127.66 C11.2,127.47 10.97,127.53 10.77,127.37 C10.57,127.21 10.64,126.48 10.28,126.31 C9.92,126.14 9.47,126.31 9.13,126.25 C8.69984737,126.056573 8.19499696,126.148002 7.86,126.48 C7.54,126.7 7.06,127.08 6.64,127.01 C6.22,126.94 6.1,126.34 5.42,126.43 C4.889957,126.427431 4.37090371,126.278636 3.92,126 C3.2790751,125.818933 2.65899153,125.5709 2.07,125.26 C1.66668132,125.004889 1.32511091,124.663319 1.07,124.26 C0.934854092,124.012034 0.781078924,123.774685 0.61,123.55 C0.35,123.27 0.09,123.12 0.05,122.7 C0.108864998,122.133429 0.209133027,121.571928 0.35,121.02 C0.290574121,120.413791 0.434839007,119.805064 0.76,119.29 C1.14,118.82 1.53,118.41 1.88,117.92 C2.19847579,117.415022 2.57430797,116.948588 3,116.53 C3.25,116.31 3.8,116.15 3.61,115.74 C3.42,115.33 2.92,115.36 2.72,115.06 C2.12,114.19 3.25,113.14 3.83,112.61 C4.80634102,111.646788 5.86727537,110.773275 7,110 C8.1,109.31 9.32,108.87 10.47,108.28 C10.9718703,108.054661 11.3987007,107.690294 11.7,107.23 C11.9138178,106.761865 12.1896231,106.324613 12.52,105.93 C12.89,105.58 13.36,105.37 13.58,104.93 C13.7918397,104.379682 13.7918397,103.770318 13.58,103.22 C13.4,102.62 13.15,102.03 13,101.42 C12.887709,100.750334 12.9426721,100.063296 13.16,99.42 C13.48,98 13.8,96.59 14.16,95.19 C14.3246623,94.6210276 14.5705267,94.0787786 14.89,93.58 C15.2501514,93.13093 15.3128122,92.5121549 15.05,92 C14.8312581,91.6034801 14.7338894,91.1514112 14.77,90.7 C14.89,90.3 15.4,90.15 15.71,89.94 C16.21,89.6 16.65,89.16 17.12,88.78 C17.59,88.4 18.12,88.12 18.62,87.73 C19.3757059,86.9241753 19.7410699,85.8280833 19.62,84.73 C19.62,84.12 19.28,83.59 19.25,82.97 C19.22,82.35 19.33,81.57 19.25,80.88 C19.25,80.48 18.77,79.88 18.89,79.52 C18.94,79.36 19.25,79.17 19.36,79.04 C19.5622106,78.7899931 19.7241597,78.509956 19.84,78.21 C19.9868421,77.6508944 20.2053178,77.113108 20.49,76.61 C20.79,76.24 21.49,76.35 21.92,76.1 C22.35,75.85 22.92,75.31 23.47,74.95 C23.9488216,74.671275 24.3920598,74.3354885 24.79,73.95 C25.11,73.6 25.23,73.14 25.55,72.79 C25.9834933,72.368421 26.3241063,71.8609076 26.55,71.3 C26.6954833,70.7855765 26.8827736,70.2839061 27.11,69.8 C27.4231434,69.3436464 27.6847405,68.8539903 27.89,68.34 C28.22,67.22 27.11,66.34 27.59,65.21 C27.7908697,64.7019602 28.0178386,64.2046315 28.27,63.72 C28.562679,63.270512 28.8265424,62.8029059 29.06,62.32 C29.5699332,61.4276776 30.5723334,60.9363826 31.59,61.08 C31.883862,61.1376904 32.186138,61.1376904 32.48,61.08 C32.7341504,60.9587245 33.0031115,60.8713121 33.28,60.82 C33.54,60.82 33.73,60.93 33.99,60.82 C34.25,60.71 34.4,60.57 34.68,60.56 C35.19,60.56 35.61,60.94 36.12,60.94 C36.6886345,60.9549487 37.2550463,60.8633732 37.79,60.67 C38.3227628,60.5295001 38.8638293,60.4226228 39.41,60.35 C40.0440688,60.0760746 40.7206746,59.9136892 41.41,59.87 C42.0329497,59.9276124 42.6611211,59.8837079 43.27,59.74 C43.98,59.54 44.67,59.27 45.37,59.04 C46.6478987,58.7256164 47.9435799,58.4885201 49.25,58.33 C49.8490785,58.2829714 50.4509215,58.2829714 51.05,58.33 C51.59,58.33 52,57.9 52.52,57.76 C53.0544902,57.6101127 53.5992986,57.4998141 54.15,57.43 C54.678858,57.4093663 55.2016378,57.5487742 55.65,57.83 C56.0388927,58.0784148 56.3780277,58.3972018 56.65,58.77 C57.01,59.15 56.95,59.51 56.9,60.01 C56.78,61.2 56.82,62.41 56.81,63.61 C56.7147601,64.155877 56.7147601,64.714123 56.81,65.26 C56.99,65.62 57.5,65.63 57.81,65.71 C58.8297689,66.0112832 59.7534419,66.5730694 60.49,67.34 C61.3,68.19 61.49,69.42 62.29,70.24 C63.09,71.06 64.29,72.14 65.29,73.06 C66.29,73.98 66.44,75.29 66.82,76.5 C67.2,77.71 67.64,79.08 67.99,80.38 C68.4083982,81.5655341 69.0925237,82.6396111 69.99,83.52 C70.2978878,84.0093723 70.7156058,84.4202425 71.21,84.72 C71.83249,84.9389064 72.4668306,85.1225313 73.11,85.27 L77.37,86.58 C78.6509442,86.9907428 79.9715452,87.2655886 81.31,87.4 C82.64,87.53 83.95,86.77 85.18,86.34 C87.794604,85.2681261 90.4853721,84.392373 93.23,83.72 C96.1031492,83.1534397 99.0389303,82.971845 101.96,83.18 C104.96,83.42 107.96,83.29 110.9,83.37 C112.352785,83.4372616 113.801276,83.5774382 115.24,83.79 C116.619517,83.872146 118.003852,83.8084599 119.37,83.6 C119.84,83.6 119.86,83.7 120.09,84.14 C120.4,84.74 120.68,85.35 120.99,85.95 L122.99,89.95 C123.270598,90.619315 123.605028,91.264765 123.99,91.88 C124.28,92.28 124.76,92.11 125.21,92.1 C126.67,92.1 128.14,92.1 129.6,92.1 L138.6,92.1 L147.23,92.1 C147.028968,91.5628209 146.927314,90.9935573 146.93,90.42 C147.165782,89.733739 147.502841,89.0865857 147.93,88.5 C148.767075,87.3290569 149.802712,86.3137258 150.99,85.5 C152.091892,84.4832311 153.099348,83.3686705 154,82.17 C154.433977,81.7094961 154.825561,81.2108118 155.17,80.68 C155.362251,80.1599166 155.814578,79.7798095 156.36,79.68 C157.718524,79.4065784 159.107912,79.3191109 160.49,79.42 C162.12,79.42 163.75,79.42 165.39,79.37 L169.92,79.28 C170.28,79.28 171.25,79.47 171.5,79.14 C171.59,79.02 171.5,78.54 171.5,78.42 C171.5,78.01 171.5,77.61 171.5,77.2 L171.5,72.37 C171.5,71.6 171.5,70.82 171.5,70.05 C171.5,69.67 171.27,69.05 171.5,68.67 C171.73,68.29 172.45,68.17 172.75,68.01 L175.11,66.79 L179.48,64.53 C180.8,63.85 182.48,63.3 183.48,62.14 C183.96,61.55 184.11,61.55 184.81,61.66 C185.51,61.77 186.13,61.48 186.81,61.66 C187.40556,61.9296017 187.969068,62.2650235 188.49,62.66 C189.23,63.1 189.96,63.56 190.69,64.02 L194.89,66.67 C197.94,68.59 201.05,70.42 204.18,72.2 C205.632201,73.0308331 206.975784,74.0385202 208.18,75.2 C209.51,76.45 210.8,77.75 212.23,78.89 C211.91,78.89 212.4,79.14 212.46,79.2 L212.81,79.51 C213.01,79.68 213.27,80.03 213.55,80.03 C213.847943,79.9613593 214.12979,79.8357168 214.38,79.66 C215.409962,79.0140379 216.651233,78.7952011 217.84,79.05 C218.78,79.05 219.71,79.05 220.65,79.05 C222.41,79.05 224.17,79.15 225.93,79.12 C227.29,79.12 229.01,78.95 230.06,77.96 C230.601395,77.3878238 231.099438,76.7761331 231.55,76.13 L233.25,73.95 C234.33,72.57 235.43,71.19 236.58,69.87 C238.93,67.18 241.42,64.61 243.75,61.87 C246.08,59.13 247.75,55.87 249.49,52.8 C249.802904,52.1051453 250.170737,51.4363576 250.59,50.8 C251.187213,50.2681815 251.861526,49.8298781 252.59,49.5 C254.011659,48.7383305 255.351927,47.8336494 256.59,46.8 C259.3,44.24 261.99,41.67 264.68,39.1 C264.99,38.81 265.86,38.27 265.76,37.8 C265.626611,37.4774445 265.444489,37.177281 265.22,36.91 C264.97,36.52 264.7,36.13 264.46,35.73 C263.69682,34.246955 263.351162,32.5843377 263.46,30.92 C263.46,26.78 263.38,22.63 263.38,18.49 C263.38,17.76 263.64,16.92 263.07,16.36 C262.5,15.8 261.68,15.07 261,14.41 L256.19,10 L273.74,10 C273.485197,9.17795613 273.653687,8.28308903 274.19,7.61 C274.580868,6.85340247 274.631765,5.96633872 274.33,5.17 C273.992858,4.33180804 273.800132,3.44256313 273.76,2.54 C273.76,1.73 274.22,0.74 273.76,0 L283.11,0.31 C286.18,0.41 289.27,0.61 292.34,0.51 C291.811199,1.02429624 291.335471,1.59047952 290.92,2.2 C290.672079,2.95065297 290.524139,3.73069867 290.48,4.52 C290.19,6.13 289.91,7.74 289.69,9.37 C289.47,11 289.27,12.58 289.03,14.19 C288.68337,15.8400027 288.163834,17.448886 287.48,18.99 C287.162954,19.555781 287.023573,20.2039023 287.08,20.85 C287.24,21.65 287.46,22.45 287.64,23.26 L288.74,28.26 L290.94,38.32 L292.14,43.8 C292.257473,44.1207333 292.321655,44.4585324 292.33,44.8 C292.201803,45.164954 292.0087,45.5037327 291.76,45.8 C291.31,46.55 290.9,47.33 290.47,48.1 C292.47,48.74 294.41,49.49 296.41,50.01 C297.099649,50.0831096 297.741009,50.3984743 298.22,50.9 C298.85,51.69 299.53,52.45 300.22,53.23 C301.372983,54.7633703 302.636339,56.2105476 304,57.56 C305.36,58.75 307.38,59.43 308.24,61.08 C308.65,61.86 309.09,62.63 309.53,63.39 C309.84,63.93 310.13,64.96 310.65,65.39 C311.17,65.82 311.85,65.48 312.37,65.46 C313.16,65.46 313.1,65.78 313.31,66.46 C313.52,67.14 313.31,67.83 313.49,68.56 C313.79638,69.338754 313.968812,70.1637263 314,71 C313.951958,71.3312775 313.925236,71.665298 313.92,72 C313.992759,72.4494879 314.022893,72.904844 314.01,73.36 C313.87,74.28 313.52,75.22 313.29,76.13 C313.098148,77.0232348 312.731068,77.8695575 312.21,78.62 C311.774005,79.4401057 311.438259,80.3096872 311.21,81.21 C310.776657,82.1254317 310.606978,83.1435075 310.72,84.15 C310.79,84.67 310.95,85.15 311.01,85.7 C311.07,86.25 311.01,86.79 311.01,87.34 C312.86,87.34 314.73,87.34 316.58,87.26 C316.95,87.26 317.58,87.04 317.81,87.4 C317.93,87.59 317.81,88.18 317.81,88.4 C317.81,88.85 317.81,89.29 317.89,89.74 C318.07,91.5 318.14,93.28 318.38,95.03 C318.62,96.78 318.78,98.54 318.89,100.31 C319,102.08 319,103.78 318.96,105.54 C318.92,107.3 318.86,109.15 318.96,110.93 C318.96,111.79 319.1,112.67 319.05,113.54 C319.106968,114.28551 319.008209,115.034718 318.76,115.74 C318.5334,116.248683 318.190942,116.697303 317.76,117.05 C317.518769,117.162712 317.26772,117.25309 317.01,117.32 C316.67,117.48 316.44,117.82 316.14,118.04 C315.847485,118.250186 315.602222,118.519294 315.42,118.83 C315.15,119.23 315,119.13 314.56,119.11 C314.47,119.11 314.33,119.11 314.25,119.11 C314.058738,119.072497 313.873628,119.00855 313.7,118.92 C313.45,118.83 313.18,118.92 312.92,118.98 C312.82,118.98 312.74,118.88 312.62,118.89 C312.5,118.9 312.36,119.05 312.21,119.13 C311.9,119.29 311.48,119.27 311.21,119.51 C310.94,119.75 310.42,120.43 310.57,120.82 C310.147493,120.820761 309.730556,120.916452 309.35,121.1 C308.89,121.39 308.7,121.88 308.22,122.16 C307.74,122.44 307.44,122.92 306.88,122.91 C306.720497,122.892167 306.559503,122.892167 306.4,122.91 C306.08,122.98 305.93,123.18 305.57,123.13 C304.91,123.04 304.67,122.48 304.46,121.93 C304.357425,121.690984 304.290057,121.438354 304.26,121.18 C304.26,120.99 304.31,120.8 304.2,120.64 C304.09,120.48 303.48,120.24 303.2,120.14 C302.92,120.04 302.41,119.72 302.04,120.07 C301.67,120.42 301.58,120.71 301.04,120.52 C300.5,120.33 300.75,119.84 300.24,119.8 C300,119.8 299.7,119.86 299.46,119.86 C299.22,119.86 298.95,119.77 298.69,119.76 C298.18,119.76 298.02,120.17 297.59,120.37 C297.16,120.57 296.94,120.86 296.43,120.72 C296.25,120.72 296.15,120.59 295.96,120.64 C295.77,120.69 295.51,121.12 295.22,121.2 C294.93,121.28 294.57,121.03 294.4,120.92 C294.260808,120.794856 294.097448,120.699563 293.92,120.64 C293.65,120.58 293.36,120.64 293.1,120.59 C292.84,120.54 292.6,119.88 292.26,120.35 C292.07,120.62 292.14,120.97 291.72,120.77 C291.45,120.64 291.49,120.39 291.13,120.4 C290.931062,120.418754 290.739277,120.483824 290.57,120.59 C290.4,120.73 290.44,120.91 290.3,121.07 C290.16,121.23 289.77,121.14 289.5,120.99 C289.34,121.2 289.56,121.39 289.5,121.59 C289.44,121.79 289.3,121.76 289.05,121.82 C288.8,121.88 288.77,121.71 288.68,121.9 C288.59,122.09 288.77,122.22 288.77,122.33 C288.77,122.44 288.63,122.59 288.63,122.77 C288.639313,122.932413 288.666135,123.093346 288.71,123.25 C288.83,123.75 289.07,123.62 289.5,123.45 C289.43,123.97 289.26,124.16 288.72,124.16 C288.72,124.51 289.21,124.81 288.93,125.16 C288.65,125.51 288.28,125.32 288.01,125.33 C288.129681,125.582174 288.178095,125.862284 288.15,126.14 C288.15,126.38 288.1,126.64 288.33,126.8 C288.56,126.96 288.7,126.8 288.85,126.92 C289.025115,127.105473 289.068764,127.379271 288.96,127.61 C288.78,128.15 288.31,128.07 287.96,128.44 C287.61,128.81 287.96,128.65 287.96,128.79 C287.96,128.93 288.13,129.23 288.21,129.46 C288.29,129.69 288.7,130.46 288.53,130.68 C288.36,130.9 288.35,130.68 288.19,130.76 C288.03,130.84 288,130.76 287.79,130.96 C287.58,131.16 287.59,131.22 287.21,131.21 C286.970414,131.173875 286.72554,131.201466 286.5,131.29 C285.96,131.58 286.22,132.29 286.27,132.77 C286.06,132.51 285.87,132.31 285.51,132.35 C285.15,132.39 285.27,132.53 285.17,132.88 C285.12,133.06 285.02,133.12 284.99,133.34 C285.003538,133.493034 285.003538,133.646966 284.99,133.8 C284.84,134.32 284.46,134.2 284.04,134.35 C283.62,134.5 283.54,134.81 283.58,135.22 C283.62,135.63 283.58,135.83 283.23,136.12 C282.88,136.41 282.65,136.48 282.59,136.9 C282.548661,137.399382 282.664011,137.899232 282.92,138.33 C282.22,138.58 282.81,139.33 283.1,139.74 C283.39,140.15 283.55,140.28 283.72,140.58 C283.89,140.88 283.91,141.26 284.08,141.58 C284.2,141.45 284.48,141.58 284.63,141.58 C284.78,141.58 285.26,141.45 285.3,141.2 C285.5,141.29 285.97,141.56 285.73,141.83 C285.93,141.93 286.17,141.69 286.39,141.66 C286.61,141.63 286.83,141.66 287.05,141.66 C287.27,141.66 287.45,141.38 287.6,141.36 C287.75,141.34 288.3,141.71 288.54,141.81 C288.859602,141.957917 289.195133,142.068642 289.54,142.14 C289.82,142.14 290.02,142.14 290.26,142.25 C290.84,142.57 291.26,143.16 291.93,142.97 L291.84,143.32 L292.07,143.16 C292.152307,143.25515 292.201443,143.374482 292.21,143.5 C292.234026,143.62491 292.334214,143.72109 292.46,143.74 C292.62,143.92 292.72,143.96 292.73,144.23 C293.034347,144.167375 293.323253,144.045015 293.58,143.87 C293.67,143.82 293.68,143.77 293.78,143.73 C293.88,143.69 293.92,143.73 293.99,143.73 C294.06,143.73 294.38,143.45 294.63,143.44 C295.05,143.44 295.19,143.5 295.63,143.25 C295.85,143.11 296.08,142.8 296.36,142.82 C296.64,142.84 296.6,143.01 296.76,143.07 C296.91294,143.118324 297.07706,143.118324 297.23,143.07 C297.49,143.07 297.37,142.89 297.7,143.07 C298.03,143.25 298.08,143.53 298.53,143.32 L298.61,143.56 C299.1,143.38 299.21,143.65 299.52,144 C299.853217,144.349122 300.274831,144.6014 300.74,144.73 C301.19,144.86 301.06,144.73 301.37,144.44 C301.518313,144.316495 301.707148,144.252362 301.9,144.26 C302.01,144.26 302.35,144.26 302.42,144.26 C302.49,144.26 302.61,144.41 302.74,144.51 C302.918616,144.653304 303.141005,144.730964 303.37,144.73 C303.631446,144.699994 303.896219,144.720362 304.15,144.79 C304.45,144.95 304.26,145.09 304.34,145.23 C304.53856,145.50983 304.817593,145.722593 305.14,145.84 C305.72,146.05 305.8,146.43 306.21,146.84 C306.560894,147.123686 306.960844,147.340608 307.39,147.48 C307.62,147.56 307.84,147.48 308.06,147.63 C308.305455,147.822634 308.530018,148.040493 308.73,148.28 C309.149346,148.657902 309.537289,149.069256 309.89,149.51 C310.2,149.92 310.29,150.42 310.89,150.39 C311.34,150.39 312.59,150.2 312.78,150.82 C312.87,151.12 312.49,151.49 312.72,151.82 C312.95,152.15 313.01,151.93 313.11,152.2 C313.21,152.47 313.11,152.52 313.42,152.68 C313.73,152.84 313.89,152.78 314.11,153 C314.292984,153.210402 314.444555,153.446179 314.56,153.7 C314.895139,154.176149 315.192704,154.677664 315.45,155.2 C315.521743,155.529473 315.521743,155.870527 315.45,156.2 C315.458172,156.56852 315.491584,156.936047 315.55,157.3 C315.61,157.98 315.55,158.42 314.79,158.23 C314.935665,158.703733 315.221582,159.122149 315.61,159.43 C315.99,159.84 316.47,159.9 316.93,160.19 C317.39,160.48 317.4,160.86 317.67,161.07 C317.94,161.28 318.1,161.14 318.31,161.19 C318.52,161.24 318.65,161.45 318.86,161.64 C319.07,161.83 319.58,161.78 319.98,161.97 C320.379737,162.084044 320.651382,162.454469 320.64,162.87 C320.64,163.37 320.64,163.87 320.64,164.38 C320.64,164.89 320.57,165.04 321.08,165.24 C321.59,165.44 321.4,165.86 321.78,166.19 C321.98,166.37 322.09,166.27 322.32,166.19 C322.573193,166.100606 322.855295,166.176098 323.03,166.38 C323.418349,166.735075 323.82561,167.068896 324.25,167.38 C324.829279,167.734324 325.49122,167.930837 326.17,167.95 C327.335704,168.166854 328.420839,168.695599 329.31,169.48 C330.37586,170.062607 331.156486,171.056459 331.47,172.23 C331.545274,172.863777 331.57868,173.501827 331.57,174.14 C331.57,174.73 331.82,174.95 332.37,175.14 C332.800437,175.283009 333.247396,175.370384 333.7,175.4 C333.877763,175.428778 334.058809,175.373356 334.19,175.25 C334.36,175.11 334.38,174.9 334.62,174.91 C334.86,174.92 335.39,175.54 335.56,175.72 C335.719246,175.894618 335.893221,176.05521 336.08,176.2 C336.33,176.38 336.61,176.37 336.86,176.51 C337.11,176.65 337.14,177.06 337.29,177.43 C337.59577,177.983136 337.972269,178.494099 338.41,178.95 C338.65,179.25 339.17,180.04 339.59,180.08 C340.01,180.12 339.94,179.85 340.14,179.72 C340.34,179.59 340.7,179.66 341.01,179.72 C341.32,179.78 341.64,179.46 342.01,179.48 C342.38,179.5 342.79,179.66 342.85,179.89 C342.91,180.12 342.68,180.2 342.75,180.36 C342.82,180.52 342.91,180.45 342.99,180.51 C343.07,180.57 343.5,180.75 343.73,180.93 C343.956126,181.076777 344.173187,181.237069 344.38,181.41 C344.588755,181.619561 344.755128,181.867422 344.87,182.14 C344.910153,182.325878 344.960224,182.509474 345.02,182.69 C345.25,183.07 345.89,183.24 346.22,183.56 C346.623417,183.874104 346.816584,184.387926 346.72,184.89 C346.654138,185.414758 346.476842,185.91937 346.2,186.37 C345.6,187.12 346.2,188.32 345.9,189.21 C345.75,189.65 345.2,189.82 344.9,190.21 C344.49,190.8 344.9,191.35 345.12,191.92 C345.26211,192.478811 345.332675,193.053408 345.33,193.63 C345.33,194.21 344.92,194.63 345.01,195.2 C345.143055,195.694693 345.397399,196.148386 345.75,196.52 C346.02027,196.949119 346.143154,197.454701 346.1,197.96 C346.1,198.48 346.43,198.77 346.28,199.31 C346.13,199.85 345.82,200.25 346.08,200.85 C346.216921,201.074955 346.253197,201.34703 346.18,201.6 C346.092405,201.815808 346.074913,202.053701 346.13,202.28 C346.388902,202.810648 346.725991,203.299427 347.13,203.73 C347.919723,204.860586 348.637798,206.039564 349.28,207.26 C349.676331,207.783597 350.011821,208.350574 350.28,208.95 C350.323458,209.497148 350.303324,210.04749 350.22,210.59 C350.22,211.12 350.58,211.25 350.99,211.54 C351.58,211.95 352.18,212.32 352.77,212.72 C353.36,213.12 353.85,213.47 354.39,213.84 C354.884852,214.078783 355.348353,214.377708 355.77,214.73 C356.59,215.73 355.68,216.89 355.55,217.88 C355.45,218.61 355.55,220.37 356.55,220.26 C357.044435,220.127758 357.518729,219.929295 357.96,219.67 C358.6065,219.518969 359.231414,219.287146 359.82,218.98 C360.82,218.32 361.5,217.45 362.76,217.5 C363.45157,217.477197 364.143849,217.51064 364.83,217.6 C365.468455,217.796222 366.085034,218.057598 366.67,218.38 C367.250463,218.617578 367.864588,218.762673 368.49,218.81 C369.104994,218.796584 369.71354,218.937547 370.26,219.22 C370.687085,219.526127 371.174626,219.737509 371.69,219.84 C371.929908,219.902273 372.161541,219.992912 372.38,220.11 C372.52,220.17 372.7,220.11 372.84,220.23 C372.98,220.35 373.08,220.47 373.21,220.56 C373.34,220.65 373.62,220.68 373.72,220.96 C373.9,221.45 373.42,221.73 373.14,222.03 C372.719497,222.375727 372.529903,222.929032 372.65,223.46 C372.8,224.07 373.31,224.34 373.59,224.86 C374.12,225.86 373.03,226.78 372.42,227.43 C372.117847,227.863872 372.019303,228.407692 372.15,228.92 C372.204066,229.66235 372.204066,230.40765 372.15,231.15 C372.04,232.63 371.89,234.15 371.79,235.59 C371.79,236.32 371.7,237.04 371.6,237.76 C371.5,238.48 371.29,239.04 371.6,239.57 C372.324647,240.698109 373.169595,241.744234 374.12,242.69 C373.493735,242.721742 372.866265,242.721742 372.24,242.69 C371.85,242.69 371.64,242.69 371.52,242.31 C371.4,241.93 371.52,240.74 370.62,240.97 C370.018297,241.244193 369.510552,241.689339 369.16,242.25 C369.01,242.43 368.89,242.76 368.69,242.81 C368.486872,242.799374 368.285595,242.765828 368.09,242.71 C367.757016,242.688416 367.422984,242.688416 367.09,242.71 C366.2,242.71 365.09,243.09 364.6,242.18 C364.11,241.27 363.39,240.18 362.85,239.18 C362.75,238.98 362.67,238.76 362.56,238.56 C362.45,238.36 362.19,238.19 362.04,237.97 C361.853333,237.903333 361.853333,237.806667 362.04,237.68 C362.226667,237.553333 362.29,237.43 362.23,237.31 C362.345316,237.053892 362.442228,236.78989 362.52,236.52 C362.788451,235.48696 362.939407,234.426912 362.97,233.36 C363.23,233.52 363.24,233.03 363.3,232.85 L363.55,232.06 C362.289724,232.125651 361.036181,232.286105 359.8,232.54 C359.98,231.31 360.22,230.1 360.47,228.89 C359.778738,228.694118 359.037061,228.925647 358.58,229.48 C358.045995,230.054959 357.429207,230.547041 356.75,230.94 C356.101471,231.237908 355.402609,231.410927 354.69,231.45 C353.847613,231.65291 353.027052,231.937595 352.24,232.3 C348.74,233.59 345.24,234.81 341.76,236.21 C338.28,237.61 334.76,239.06 331.34,240.56 L328.72,241.7 C327.941239,241.980738 327.182771,242.314865 326.45,242.7 C325.859356,243.116388 325.327855,243.610886 324.87,244.17 C324.26,244.83 323.6,245.45 322.96,246.07 C320.06,248.91 317.1,251.7 314.19,254.54 L315.01,255.18 C314.86,255.32 314.72,255.56 314.5,255.57 C314.28,255.58 314.27,255.41 314.13,255.38 C313.99,255.35 314.13,255.38 313.96,255.38 C313.79,255.38 313.46,255.87 313.32,256.01 C312.47,256.88 311.6,257.74 310.74,258.6 C308.973333,260.373333 307.216667,262.153333 305.47,263.94 C303.77,265.67 302.02,267.36 300.36,269.13 C299.72,269.81 299.21,270.63 298.2,270.65 C297.195699,270.610578 296.19425,270.517109 295.2,270.37 L291.54,270.08 C290.45704,270.112712 289.373784,270.025515 288.31,269.82 C287.909799,269.63785 287.544348,269.387448 287.23,269.08 C286.75,268.71 286.23,268.35 285.78,267.98 L284.45,266.98 C284.12,266.73 283.66,266.16 283.22,266.23 C282.78,266.3 282.31,266.79 281.96,267 C281.61,267.21 281.03,267.58 280.58,267.88 C279.562641,268.499271 278.44638,268.939011 277.28,269.18 C276.14,269.48 275,269.81 273.85,270.04 C272.659296,270.239588 271.456648,270.359852 270.25,270.4 C268.88,270.49 267.51,270.59 266.14,270.71 C265.55,270.76 264.96,270.71 264.37,270.79 C263.827579,270.852971 263.319506,271.087736 262.92,271.46 C261.79,272.28 260.61,273.04 259.45,273.81 C258.95,274.14 258.45,274.47 257.94,274.81 C257.492416,274.999562 257.092722,275.286522 256.77,275.65 C256.96,275.85 257.1,275.65 257.26,275.94 C257.377557,276.180684 257.445569,276.44253 257.46,276.71 C257.46,276.9 257.21,277.19 257.14,277.4 C257.07,277.61 257.09,278.07 256.99,278.28 C256.8,278.69 255.83,278.2 255.43,278.1 C255.03,278 254.54,277.87 254.09,277.8 C253.83,277.8 253.17,277.8 253.2,277.52 C253.42,277.72 253.38,277.32 253.31,277.18 C253.24,277.04 253.21,277.33 253.16,277.18 C253.11,277.03 253.1,276.83 253.28,276.78 C253.226153,276.754718 253.163847,276.754718 253.11,276.78 C253.17,276.63 252.81,276.36 252.7,276.36 L252.75,276.24 C252.67,276.24 252.59,276.24 252.53,276.24 C252.53,276.09 252.27,276.09 252.45,275.95 C252.372644,275.898584 252.288502,275.858195 252.2,275.83 C252.13,275.83 252.13,275.7 252,275.88 C251.933333,275.88 251.933333,275.83 252,275.73 C252.12,275.88 251,276.14 250.92,276.15 L249.61,276.31 C249.24,276.31 249.33,276.44 249.25,276.05 C249.111541,275.59351 249.054007,275.116317 249.08,274.64 C249.17,274.09 249.38,273.91 249.08,273.4 C248.78,272.89 248.46,272.52 248.17,272.07 C247.618693,271.083001 246.928291,270.180426 246.12,269.39 C245.87,269.18 244.52,267.89 244.12,268.44 C243.93,268.73 244.39,268.82 244.19,269.15 C243.99,269.48 243.25,269.82 242.92,270.09 C242.736198,270.254684 242.535013,270.398867 242.32,270.52 C242.12,270.62 241.91,270.63 241.74,270.8 C241.57,270.97 241.46,271.51 241,271.7 C240.54,271.89 240,271.88 239.58,272.04 C239,272 238.41,272.21 237.79,272.4 Z" id="Shape" stroke="#FFFFFF" stroke-width="1.5" stroke-linecap="round" stroke-linejoin="round"></path>
                <polyline id="Shape" stroke="#871100" stroke-width="2" fill="#FFFFFF" fill-rule="nonzero" stroke-linecap="round" stroke-linejoin="round" points="238.28 235.91 238.24 235.89 238.21 235.89 238.17 235.88 238.17 235.89 238.15 235.88 238.14 235.88 238.12 235.88 238.11 235.87 238.09 235.86 238.08 235.85 238.07 235.86 238.06 235.87 238.05 235.89 238.03 235.91 238.01 235.93 237.98 235.94 237.93 235.95 237.89 235.96 237.85 235.97 237.8 235.99 237.75 236 237.72 236.01 237.68 236.01 237.65 236.01 237.64 236.01 237.62 236.01 237.61 236.01 237.6 236.02 237.59 236.03 237.59 236.04 237.58 236.04 237.57 236.05 237.56 236.05 237.53 236.07 237.52 236.08 237.5 236.09 237.5 236.1 237.5 236.1 237.5 236.11 237.49 236.11 237.4 236.09 237.4 236.08 237.4 236.04 237.41 236 237.42 235.97 237.43 235.92 237.44 235.9 237.38 235.9 237.33 235.9 237.29 235.9 237.26 235.91 237.22 235.93 237.17 235.95 237.13 235.97 237.09 235.98 237.06 235.99 237 235.98 236.84 235.96 236.79 235.96 236.75 235.96 236.72 235.97 236.61 236.01 236.63 236.04 236.63 236.07 236.64 236.13 236.65 236.18 236.65 236.2 236.65 236.22 236.63 236.28 236.6 236.33 236.58 236.37 236.57 236.38 236.56 236.38 236.54 236.38 236.46 236.34 236.44 236.34 236.38 236.34 236.29 236.33 236.27 236.33 236.25 236.32 236.23 236.31 236.22 236.31 236.21 236.31 236.19 236.32 236.16 236.32 236.14 236.32 236.13 236.31 236.12 236.3 236.11 236.29 236.1 236.29 236.09 236.3 236.08 236.32 236.08 236.33"></polyline>
                <path d="M238.35,235.92 C238.894344,235.22176 239.338625,234.450999 239.67,233.63 C239.74,233.27 239.52,233.23 239.53,232.97 C239.590161,232.535496 239.736343,232.117347 239.96,231.74 C240.29,231.06 240.4,230.29 240.75,229.61 C241.220857,228.894909 241.632238,228.142383 241.98,227.36 C242.1,227 241.98,226.73 242.21,226.36 C242.44,225.99 242.52,226.36 242.59,225.9 C242.59,225.73 242.44,225.55 242.48,225.35 C242.52,225.15 242.65,225.06 242.73,224.91 C242.92,224.55 243.12,224.17 243.29,223.81 C243.482725,223.482024 243.618004,223.123534 243.69,222.75 C243.69,222.32 243.42,222.03 243.34,221.64 C243.292517,221.262051 243.219009,220.887828 243.12,220.52 C243.032986,220.138229 243.032986,219.741771 243.12,219.36 C243.119318,219.061384 243.03999,218.768215 242.89,218.51 C242.67,218.02 242.84,218.02 242.77,217.51 C242.77,217.24 242.54,217.21 242.59,216.91 C242.59,216.79 242.77,216.7 242.81,216.59 C242.85,216.48 242.81,216.08 242.81,216.08 C242.95,215.85 243.37,215.78 243.55,215.59 C243.73,215.4 243.67,215.36 243.77,214.96 C243.87,214.56 244.12,214.37 244.19,214.02 C244.26,213.67 244.13,213.65 244.19,213.43 C244.25,213.21 244.27,213.1 244.3,212.93 C244.284869,212.666884 244.284869,212.403116 244.3,212.14 C244.35,211.94 244.47,211.92 244.52,211.76 C244.592614,211.357416 244.554596,210.942673 244.41,210.56 C244.23,209.99 244.19,209.46 244.06,208.88 C243.97,208.48 243.77,208.1 243.66,207.7 C243.55,207.3 243.66,207.11 243.66,206.85 C243.609029,206.623344 243.545599,206.399671 243.47,206.18 C243.47,206.05 243.47,205.89 243.41,205.77 C243.35,205.65 243.1,205.59 243.02,205.46 C242.94,205.33 243.02,205.2 242.84,204.92 C242.66,204.64 242.42,204.46 242.33,204.06 C242.33,203.89 242.33,203.78 242.27,203.65 C242.17,203.32 241.97,203.22 241.83,203.03 C241.725245,202.857256 241.650837,202.667854 241.61,202.47 C241.61,202.32 241.39,202.14 241.36,202.01 C241.29,201.69 241.36,201.62 241.24,201.42 C241.12,201.22 240.9,201.29 240.75,201.16 C240.726127,200.97933 240.664821,200.805629 240.57,200.65 C240.33,200.41 240.03,200.53 239.84,200.35 C239.65,200.17 239.72,199.63 239.56,199.44 C239.4,199.25 239.44,199.51 239.41,199.44 C239.38,199.37 239.24,199.26 239.17,199.17 C239.1,199.08 239.05,198.78 238.95,198.62 C238.85,198.46 238.67,198.35 238.57,198.19 C238.442872,197.839775 238.336028,197.482516 238.25,197.12 C238.11,196.79 237.8,196.51 237.67,196.18 C237.54,195.85 237.59,195.71 237.5,195.48 C237.5,195.48 237.25,194.94 237.27,194.96 C237.29,194.98 236.97,194.96 236.86,194.85 C236.75,194.74 236.86,194.59 236.78,194.42 C236.7,194.25 236.62,194.36 236.61,194.31 C236.6,194.26 236.66,194.07 236.61,194.03 C236.577164,193.831166 236.533769,193.634221 236.48,193.44 C236.35,193.12 236.32,192.53 236.01,192.57 C236.37,192.23 236.24,191.92 236.01,191.57 C235.78,191.22 235.46,191.27 235.67,190.84 C235.01,191.02 235.67,190.35 235.67,190.45 C235.67,190.14 235.28,190.25 235.17,190.01 L235.31,189.92 C235.177359,189.667769 234.95121,189.477517 234.68,189.39 C234.51,189.32 234.68,189.7 234.4,189.48 C234.12,189.26 234.4,189.33 234.34,189.13 C234.28,188.93 233.98,187.51 233.96,187.52 C233.54,187.63 233.67,187.43 233.54,187.04 C233.33,186.45 233,186.4 232.41,186.38 C232.65,186.21 232.49,186.1 232.41,185.92 C232.33,185.74 232.18,185.72 232.1,185.65 C232.02,185.58 232.1,185.01 232.1,184.87 C232.1,184.73 232.01,184.55 231.99,184.42 C231.92,183.84 232.17,183.15 232.73,183.1 C232.79,183.1 232.38,181.66 232.4,181.46 C232.46,180.97 232.57,180.88 232.23,180.64 C231.89,180.4 231.69,180.54 231.47,180.41 C231.25,180.28 231.37,180.13 231.29,180.06 C231.21,179.99 231.01,179.88 230.88,179.77 C230.713885,179.640775 230.562924,179.49317 230.43,179.33 C230.3,179.18 230.28,179.06 230.13,178.95 C229.98,178.84 229.73,178.83 229.54,178.65 C229.33919,178.451501 229.158325,178.233793 229,178 C228.83,177.7 228.89,177.47 228.82,177.19 C228.82,177.12 228.64,176.72 228.64,176.68 C228.64,176.4 229.03,176.31 229.04,175.97 C229.05,175.63 228.46,174.97 228.29,174.51 C228.12,174.05 228.11,173.81 228.01,173.51 C227.91,173.21 228.11,173.35 227.8,173.02 C227.49,172.69 227.28,172.74 227.09,172.5 C226.9,172.26 226.92,171.99 226.77,171.78 C226.553579,171.487664 226.229789,171.29339 225.87,171.24 C225.45,171.24 225.45,171.38 225.09,171.46 C224.5101,171.467396 223.935952,171.344364 223.41,171.1 C223.08,170.8 223.5,170.55 223.41,170.22 C223.32,169.89 222.91,170.01 222.56,169.92 C221.56,169.68 222.31,169.21 222.18,168.65 C222.05,168.09 221.18,168.08 220.73,168.07 C220.73,168.07 220.62,168.21 220.53,168.21 C220.192835,168.184249 219.858368,168.130734 219.53,168.05 C218.84,167.9 218.53,167.31 217.95,167.05 C217.14,166.76 216.29,167.27 215.8,166.44 C215.64,166.17 215.64,165.91 215.32,165.82 C215.2,165.82 215.08,165.97 214.97,165.98 C214.659999,166.028325 214.34529,165.928358 214.12,165.71 C213.71,165.28 214.12,165.09 213.95,164.71 C213.78,164.33 213.32,164.49 213.13,164.09 C212.94,163.69 213.26,163.4 213.13,163.09 C213.13,162.99 213.13,162.93 213.07,162.85 C213.01,162.77 212.71,163 212.81,162.65 C212.74,162.7 212.73,163.04 212.59,163 C212.45,162.96 212.59,162.52 212.42,162.84 C212.24,162.66 212.58,162.37 212.3,162.28 C212.24,162.28 211.98,162.5 211.9,162.53 C211.55,162.64 211.65,162.07 211.41,162.53 C211.382358,162.777537 211.427537,163.02776 211.54,163.25 C211.45365,163.026966 211.389995,162.795798 211.35,162.56 C211.27794,162.291823 211.173858,162.033297 211.04,161.79 C210.76907,161.46531 210.467697,161.167286 210.14,160.9 C210.03,160.8 209.98,161.06 209.85,160.9 C209.72,160.74 210,160.57 210,160.45 C210,159.88 209.61,159.95 209.41,159.45 C209.314734,159.032063 209.25122,158.607519 209.22,158.18 C209.14,157.86 209.07,157.94 208.93,157.7 C208.79,157.46 209.08,157.55 208.93,157.34 C208.58,156.94 208.47,157.17 208.42,156.6 C208.42,156.7 208.49,156.19 208.53,156.33 C208.45,156.1 208.27,156.33 208.19,156.15 C208.19,156.15 208.35,155.94 208.33,155.88 C208.31,155.82 208.51,156.2 208.61,156.11 C208.595114,155.887598 208.561664,155.666829 208.51,155.45 C208.516889,155.187033 208.419882,154.931942 208.24,154.74 C208.05,154.51 206.87,153.6 207.03,153.31 C206.29,153.53 206.87,153.06 206.73,152.69 C206.73,152.69 206.63,152.8 206.63,152.8 C206.28,152.44 206.09,152.61 205.63,152.43 C204.73,152.05 206.07,151.85 205.63,151.37 C205.44,151.18 205.09,151.26 204.9,151.08 C204.71,150.9 204.9,150.72 204.8,150.52 C204.7,150.32 204.45,150.28 204.55,150.13 C204.76,149.8 205.06,150.39 205.33,150.27 C205.84,150.05 205.17,148.85 205.05,148.59 C204.93,148.33 204.91,148 204.86,147.95 C204.6,147.74 204.41,148.29 204.09,147.74 C203.77,147.19 204.31,146.37 203.47,146 C203.22,145.89 202.87,146 202.8,145.67 C202.73,145.34 203.16,145.47 203.36,145.43 C203.87,145.33 203.6,145.52 203.66,145.12 C203.685456,144.837238 203.685456,144.552762 203.66,144.27 C203.597412,143.954205 203.643216,143.626528 203.79,143.34 C203.844126,143.190704 203.884298,143.036712 203.91,142.88 C203.91,142.71 203.72,142.69 203.91,142.49 C204.1,142.29 204.39,142.49 204.48,142.3 C204.57,142.11 204.04,141.76 204.29,141.36 C204.37,141.23 204.9,141.22 204.81,140.97 C204.72,140.72 203.58,141.24 203.99,140.66 C204.14,140.44 204.48,140.6 204.54,140.38 C204.65,139.96 203.97,140.01 203.82,139.85 C203.4,139.4 203.99,138.99 203.82,138.64 C203.73,138.46 203.35,138.46 203.28,138.23 C203.21,138 203.55,137.9 203.46,137.51 C203.26,136.63 201.96,136.65 201.62,135.9 C201.48,135.59 201.62,135.4 201.41,135.23 C201.41,135.23 200.67,135.6 201.03,134.96 C201.23,134.62 201.45,135.26 201.41,134.63 C201.281066,134.347982 201.123577,134.079916 200.94,133.83 C200.801429,133.569736 200.62632,133.330645 200.42,133.12 C200.31,133.02 200.14,133.12 200.03,132.96 C199.937112,132.861065 199.904034,132.720104 199.943219,132.590177 C199.982403,132.460251 200.087901,132.361082 200.22,132.33 C200.01,132.33 199.72,132.27 199.59,132.07 C199.46,131.87 199.78,131.51 199.67,131.32 C199.56,131.13 199.17,131.32 198.93,131.32 C198.47,131.18 198.79,131.19 198.71,130.9 C198.54,130.27 198.71,130.75 198.45,131.03 C198.19,131.31 198.12,131.23 197.94,131.45 C197.76,131.67 197.5,130.45 197.47,130.38 C197.44,130.31 197.47,129.5 197.47,129.5 C197.33,129.3 197.2,129.66 197.07,129.37 C197.02,129.25 197.26,129 197.18,128.82 C197.1,128.64 196.38,128.35 196.18,128.24 C195.770409,128.040733 195.384631,127.795848 195.03,127.51 C194.257024,126.833167 193.434754,126.214793 192.57,125.66 C192.425509,125.527816 192.268044,125.410555 192.1,125.31 C192.02,125.31 191.74,125.31 191.7,125.25 C191.66,125.19 191.35,125.25 191.44,125.09 C191.53,124.93 191.69,124.98 191.81,125.01 C191.93,125.04 192.05,125.28 192.21,125.36 C192.37,125.44 192.51,125.36 192.78,125.47 C193.049556,125.518806 193.314017,125.592453 193.57,125.69 C193.87,125.98 193.49,126.23 193.57,126.59 C193.65,126.95 194.12,126.95 194.33,127.18 C194.54,127.41 194.43,127.49 194.53,127.61 C194.6582,127.715164 194.795394,127.808858 194.94,127.89 C195.22,128.12 195.52,128.32 195.27,128.73 C194.44387,128.202779 193.782149,127.454445 193.36,126.57 C193.29,126.41 193.48,126.41 193.36,126.22 C193.228285,126.05959 193.060339,125.932774 192.87,125.85 C192.457703,125.51729 191.957216,125.312229 191.43,125.26 C191.43,124.67 191.63,124.67 192.05,124.35 C192.181813,124.268435 192.305688,124.174691 192.42,124.07 C192.42,124.07 192.36,123.94 192.42,123.92 C192.48,123.9 193.42,123.43 193.42,123.35 C193.42,123.27 193.22,122.85 193.19,122.66 C193.16,122.47 193.27,122.32 193.19,122.14 C193.119483,121.907484 193.032599,121.68025 192.93,121.46 C192.83,121.14 192.83,120.7 192.6,120.46 C192.37,120.22 191.97,120.14 191.71,119.97 C191.29,119.69 191.1,119.27 190.71,118.97 C191.71,117.97 191.77,116.36 192.1,114.97 C192.344747,113.594142 192.184952,112.176823 191.64,110.89 C191.17,109.41 189.94,108.39 188.94,107.24 C187.750036,106.058019 186.675196,104.765532 185.73,103.38 C185.348305,102.726631 185.033382,102.036482 184.79,101.32 C184.654671,100.681295 184.46395,100.055596 184.22,99.45 C183.956865,98.8565298 183.571868,98.3250288 183.09,97.89 C182.65,97.58 181.92,97.52 181.62,97.01 C181.32,96.5 181.62,95.75 181.56,95.28 C181.5,94.81 181.68,94.28 181.48,93.97 C181.16,93.44 180.77,93.97 180.33,93.67 C179.89,93.37 180.16,92.67 180.04,92.3" id="Shape" stroke="#871100" stroke-width="2" stroke-linecap="round" stroke-linejoin="round"></path>
                <circle id="Oval" stroke="#871100" stroke-width="2" fill="#FFFFFF" fill-rule="nonzero" stroke-linecap="square" stroke-linejoin="bevel" cx="236.6" cy="237.95" r="3.38"></circle>
                <circle id="Oval" stroke="#871100" stroke-width="2" fill="#FFFFFF" fill-rule="nonzero" stroke-linecap="square" stroke-linejoin="bevel" cx="178.52" cy="89.94" r="3.38"></circle>
            </g>
        </g>
    </g>
</svg>